<svg width="101" height="32" viewBox="0 0 101 32" fill="none" xmlns="http://www.w3.org/2000/svg">
<path d="M21.9722 19.7452H19.3709C20.4933 19.3887 20.9595 18.6503 21.7802 16.9519L24.7106 10.9266C22.6831 10.8169 20.603 11.146 18.2738 11.3106V19.7452C17.6979 18.9245 16.5755 17.9372 14.6578 18.8971C13.3983 19.5279 12.0017 20.0195 10.3308 20.0195C5.13039 20.0173 0.200012 16.4583 0.200012 10.1587C0.200012 3.85912 5.13039 0.300049 10.3329 0.300049C13.4004 0.300049 15.8371 1.34013 17.7549 4.10596L15.7274 7.3106C16.7422 3.12072 13.4004 0.57431 10.3329 0.57431C6.14305 0.57431 4.30761 4.95617 4.30761 10.1587C4.30761 15.3612 6.14305 19.7431 10.3329 19.7431C11.7844 19.7431 13.0713 19.4414 14.1663 18.8654V11.3338C13.0165 11.2515 11.8118 11.087 10.7148 10.7304C8.6325 10.0996 8.16837 9.30638 7.6747 7.71777C9.04389 9.16925 10.8519 9.90764 12.8772 10.2642C17.5059 11.1123 21.2295 10.0448 24.9553 10.4562L29.9152 0.300049L38.8709 16.9519C39.7464 18.5954 40.1578 19.3887 41.2802 19.7452H34.3245C35.1177 19.3887 35.1177 18.5954 34.2148 16.9519L33.5566 15.7473C30.4068 12.2684 27.7506 11.1735 25.0122 10.9541L22.0819 16.9519C21.2612 18.6228 21.1789 19.3887 21.9722 19.7452ZM27.8329 5.14815L25.2317 10.5152C27.7506 10.8443 30.2696 11.9393 33.065 14.8422L27.835 5.14815H27.8329Z" fill="#1D1D1B"/>
<path d="M53.6367 8.70726C57.2802 9.03638 60.7844 10.1587 60.7844 13.9646C60.7844 18.8127 55.0333 19.7431 50.6515 19.7431H42.6536C43.6114 19.3866 43.8034 18.6482 43.8034 16.9499V3.3676C43.8034 1.66929 43.6114 0.930894 42.6536 0.574354H49.8836C54.1831 0.574354 58.757 1.31275 58.757 4.92878C58.757 7.4752 56.4848 8.38026 53.6346 8.70726H53.6367ZM49.8857 8.59756C53.5291 8.59756 54.6515 7.0638 54.6515 4.92667C54.6515 2.78954 53.5291 0.846506 49.8857 0.846506H49.3371C48.2148 0.846506 47.9131 0.928785 47.9131 2.92878V7.00895C47.9131 8.67984 48.0502 8.59756 49.3097 8.59756H49.8857ZM50.6515 19.4689C54.8139 19.4689 56.6768 17.606 56.6768 13.9646C56.6768 10.3233 54.8139 8.86971 50.6515 8.86971H49.3097C48.0502 8.86971 47.9131 8.78743 47.9131 10.4583V17.3866C47.9131 19.3866 48.2148 19.4689 49.3371 19.4689H50.6515Z" fill="#1D1D1B"/>
<path d="M62.238 3.3676C61.0608 1.69672 60.622 0.930894 59.4173 0.574354H66.4827C65.7717 0.930894 66.0988 1.69672 67.2781 3.3676L71.8793 9.83174L76.5629 3.3676C77.6852 1.66929 76.9743 0.930894 76.2612 0.574354H79.8772C78.6726 0.930894 78.0692 1.72414 76.892 3.3676L71.9342 10.2136V16.952C71.9342 18.6503 72.1262 19.3887 73.084 19.7452H66.6747C67.6325 19.3887 67.8245 18.6503 67.8245 16.952V11.2009L62.238 3.3676Z" fill="#1D1D1B"/>
<path d="M81.7675 3.91619H81.5481C81.4932 3.91619 81.4658 3.88877 81.5207 3.86134C81.9595 3.55965 82.2591 3.04067 82.4236 2.43729C82.3139 2.46472 82.2042 2.49214 82.0671 2.49214C81.354 2.49214 80.9722 1.97105 80.9722 1.39721C80.9722 0.823367 81.3561 0.30227 82.0671 0.30227C82.7781 0.30227 83.162 0.823367 83.162 1.39721C83.162 2.43729 82.6409 3.39721 81.9574 3.86134C81.9025 3.88877 81.8477 3.91619 81.7654 3.91619H81.7675Z" fill="#1D1D1B"/>
<path d="M97.7063 15.9646C97.7063 12.9794 93.9553 11.9942 90.6684 10.5975C88.0945 9.5026 85.7654 8.16083 85.7654 5.42243C85.7654 2.05324 88.9426 0.300072 91.9827 0.300072C94.392 0.300072 97.0228 1.34016 98.392 3.31273L97.1599 5.69459C96.6937 1.77897 94.3941 0.574333 91.9827 0.574333C89.738 0.574333 87.8751 1.58699 87.8751 3.25788C87.8751 4.92876 90.0397 5.99627 92.5587 7.06378C96.065 8.51526 100.2 10.0764 100.2 13.6376C100.2 15.5279 99.2148 17.3612 97.4616 18.6229C96.1198 19.5258 94.4215 20.0195 92.5587 20.0195C88.6705 20.0195 85.3561 17.7748 84.8076 15.1165L86.835 11.9119C86.2865 16.6229 88.6705 19.7452 92.5587 19.7452C95.6262 19.7452 97.7063 18.4583 97.7063 15.9667V15.9646Z" fill="#1D1D1B"/>
<path d="M31.6074 31.9648C31.2962 31.9648 30.9947 31.9162 30.703 31.819C30.414 31.7217 30.1611 31.5828 29.9444 31.4022C29.7276 31.2216 29.5748 31.0062 29.4859 30.7561L30.0319 30.5519C30.093 30.7242 30.2042 30.8728 30.3654 30.9979C30.5293 31.1201 30.7196 31.2146 30.9364 31.2813C31.1559 31.348 31.3796 31.3813 31.6074 31.3813C31.8742 31.3813 32.1229 31.3369 32.3535 31.248C32.5841 31.159 32.7703 31.0354 32.912 30.877C33.0537 30.7158 33.1246 30.5269 33.1246 30.3102C33.1246 30.0906 33.0509 29.91 32.9037 29.7683C32.7564 29.6266 32.566 29.5155 32.3326 29.4349C32.102 29.3515 31.8603 29.2876 31.6074 29.2432C31.2101 29.1737 30.853 29.0792 30.5362 28.9597C30.2223 28.8402 29.9736 28.6721 29.7902 28.4554C29.6068 28.2359 29.5151 27.9469 29.5151 27.5885C29.5151 27.2522 29.6123 26.9605 29.8068 26.7132C30.0013 26.4659 30.257 26.2742 30.5738 26.138C30.8933 26.0018 31.2379 25.9338 31.6074 25.9338C31.9103 25.9338 32.2062 25.981 32.4952 26.0755C32.7842 26.17 33.0384 26.3075 33.2579 26.4881C33.4802 26.6687 33.64 26.8896 33.7373 27.1508L33.1829 27.3509C33.1218 27.1758 33.0092 27.0272 32.8453 26.9049C32.6841 26.7799 32.4952 26.6854 32.2785 26.6215C32.0617 26.5548 31.838 26.5215 31.6074 26.5215C31.3434 26.5187 31.0961 26.5631 30.8655 26.6548C30.6377 26.7437 30.4529 26.8688 30.3112 27.0299C30.1695 27.1883 30.0986 27.3745 30.0986 27.5885C30.0986 27.8385 30.1639 28.0317 30.2945 28.1678C30.4279 28.3012 30.6085 28.4012 30.8363 28.4679C31.0642 28.5346 31.3212 28.5943 31.6074 28.6471C31.9798 28.711 32.3257 28.8111 32.6452 28.9472C32.9648 29.0806 33.2218 29.2598 33.4163 29.4849C33.6108 29.7072 33.7081 29.9823 33.7081 30.3102C33.7081 30.6436 33.6108 30.9354 33.4163 31.1854C33.2218 31.4327 32.9648 31.6245 32.6452 31.7606C32.3285 31.8968 31.9825 31.9648 31.6074 31.9648Z" fill="black"/>
<path d="M37.2149 31.8565V26.0213H40.766V26.6048H37.7984V28.4387H40.2534V29.0222H37.7984V31.273H40.766V31.8565H37.2149Z" fill="black"/>
<path d="M46.8044 31.9648C46.4098 31.9648 46.0388 31.887 45.6915 31.7314C45.3442 31.5731 45.0385 31.3563 44.7745 31.0812C44.5134 30.8034 44.3077 30.481 44.1577 30.1143C44.0104 29.7475 43.9368 29.3557 43.9368 28.9389C43.9368 28.5221 44.0104 28.1303 44.1577 27.7635C44.3077 27.3967 44.5134 27.0758 44.7745 26.8007C45.0385 26.5228 45.3442 26.3061 45.6915 26.1505C46.0388 25.9921 46.4098 25.9129 46.8044 25.9129C47.2767 25.9129 47.7116 26.0227 48.1089 26.2422C48.5063 26.4617 48.8356 26.7535 49.0967 27.1175L48.5799 27.3967C48.3743 27.1216 48.1131 26.9035 47.7963 26.7424C47.4823 26.5784 47.1517 26.4964 46.8044 26.4964C46.4848 26.4964 46.1861 26.5617 45.9082 26.6923C45.6332 26.8202 45.3914 26.9966 45.183 27.2217C44.9746 27.4467 44.8121 27.7066 44.6954 28.0011C44.5786 28.2956 44.5203 28.6082 44.5203 28.9389C44.5203 29.2751 44.5786 29.5905 44.6954 29.885C44.8148 30.1796 44.9788 30.4394 45.1872 30.6644C45.3984 30.8895 45.6415 31.0659 45.9166 31.1938C46.1944 31.3188 46.4904 31.3813 46.8044 31.3813C47.1656 31.3813 47.5004 31.2994 47.8088 31.1354C48.12 30.9687 48.3771 30.752 48.5799 30.4852L49.0967 30.7645C48.8356 31.1285 48.5063 31.4202 48.1089 31.6397C47.7116 31.8565 47.2767 31.9648 46.8044 31.9648Z" fill="black"/>
<path d="M52.4574 31.8565V26.0213H54.4372C54.7484 26.0213 55.029 26.0977 55.2791 26.2505C55.5292 26.4006 55.7279 26.6048 55.8751 26.8632C56.0224 27.1189 56.096 27.4065 56.096 27.726C56.096 28.0122 56.0377 28.272 55.921 28.5054C55.8043 28.7388 55.6445 28.9319 55.4417 29.0848C55.2416 29.2376 55.0151 29.339 54.7623 29.389L56.1877 31.8565H55.5125L54.1079 29.4349H53.0409V31.8565H52.4574ZM53.0409 28.8514H54.3872C54.5928 28.8514 54.7803 28.8013 54.9498 28.7013C55.1221 28.5985 55.2583 28.461 55.3583 28.2887C55.4611 28.1136 55.5125 27.9163 55.5125 27.6968C55.5125 27.4773 55.4611 27.2814 55.3583 27.1091C55.2583 26.9341 55.1221 26.7965 54.9498 26.6965C54.7803 26.5937 54.5928 26.5423 54.3872 26.5423H53.0409V28.8514Z" fill="black"/>
<path d="M59.7204 31.8565V26.0213H63.2716V26.6048H60.304V28.4387H62.7589V29.0222H60.304V31.273H63.2716V31.8565H59.7204Z" fill="black"/>
<path d="M71.1043 26.0213V26.6048H69.1037V31.8565H68.5202V26.6048H66.5237V26.0213H71.1043Z" fill="black"/>
</svg>
